<?xml version="1.0" encoding="UTF-8"?> <svg xmlns="http://www.w3.org/2000/svg" id="Pareto-logo" width="156.427" height="58.265" viewBox="0 0 156.427 58.265"><path id="Path_1" data-name="Path 1" d="M3.652,57.94h.713l3.009,7.18H6.555l-.88-2.235H2.385L1.5,65.12H.66l2.992-7.18m-1.029,4.4H5.411L4.1,59.1a1.452,1.452,0,0,1-.079-.449v.088a1.082,1.082,0,0,1-.088.37Z" transform="translate(-0.079 -6.959)" fill="#1d1d1b"></path><path id="Path_2" data-name="Path 2" d="M11.52,57.94h.757V64.5H15.62v.625h-4.1V57.94" transform="translate(-1.384 -6.959)" fill="#1d1d1b"></path><path id="Path_3" data-name="Path 3" d="M19.67,57.94h.757V64.5H23.77v.625h-4.1V57.94" transform="translate(-2.363 -6.959)" fill="#1d1d1b"></path><path id="Path_4" data-name="Path 4" d="M33.81,57.94h.739l2.288,2.983a.572.572,0,0,1,.132.4.51.51,0,0,1,.141-.4L39.4,57.94h.739v7.18h-.766V58.873a.721.721,0,0,1-.123.387l-2.279,2.956L34.69,59.269a.722.722,0,0,1-.123-.387V65.12H33.81V57.94" transform="translate(-4.061 -6.959)" fill="#1d1d1b"></path><path id="Path_5" data-name="Path 5" d="M47.06,57.94h.713l3.009,7.18h-.818l-.88-2.235H45.767l-.88,2.235H44.06l2.992-7.18m-1.029,4.4h2.789L47.527,59.1a1.452,1.452,0,0,1-.079-.449v.088a1.32,1.32,0,0,1-.079.37Z" transform="translate(-5.292 -6.959)" fill="#1d1d1b"></path><path id="Path_6" data-name="Path 6" d="M52.42,57.94h5.57v.642H55.6V65.12h-.748V58.582H52.42V57.94" transform="translate(-6.296 -6.959)" fill="#1d1d1b"></path><path id="Path_7" data-name="Path 7" d="M60.68,57.94h5.579v.642h-2.4V65.12h-.748V58.582H60.68V57.94" transform="translate(-7.288 -6.959)" fill="#1d1d1b"></path><path id="Path_8" data-name="Path 8" d="M70.26,57.94h3.792v.651H71.017v2.578h2.93v.616h-2.93v2.692h3.141v.642h-3.9V57.94" transform="translate(-8.439 -6.959)" fill="#1d1d1b"></path><path id="Path_9" data-name="Path 9" d="M78.55,57.94h2.156a1.9,1.9,0,0,1,2.006,1.927,1.663,1.663,0,0,1-1.346,1.76,1.073,1.073,0,0,1,.537.4c.106.141.211.264.3.4s.317.51.88,1.5l.757,1.223h-.88l-.563-1c-.246-.422-.449-.766-.625-1.038a8.993,8.993,0,0,0-.6-.88,1.179,1.179,0,0,0-.959-.475h-.88V65.1h-.757V57.94m.757,3.256h1.109a1.32,1.32,0,1,0,0-2.64H79.307Z" transform="translate(-9.435 -6.959)" fill="#1d1d1b"></path><path id="Path_10" data-name="Path 10" d="M87.125,63.9a2.253,2.253,0,0,0,.774.449,2.64,2.64,0,0,0,.933.211,1.267,1.267,0,0,0,1.346-1.3,1.241,1.241,0,0,0-.528-1.029,5.456,5.456,0,0,0-.537-.317l-.792-.414a1.9,1.9,0,0,1-1.232-1.707,1.989,1.989,0,0,1,2.05-1.953,3.089,3.089,0,0,1,.985.185,2.385,2.385,0,0,1,.642.3v.766a2.323,2.323,0,0,0-.326-.238,2.49,2.49,0,0,0-1.258-.361,1.285,1.285,0,0,0-1.293,1.249,1.326,1.326,0,0,0,.88,1.205l.748.387c1.065.546,1.39.985,1.39,1.813a1.953,1.953,0,0,1-2.05,2.024,3.124,3.124,0,0,1-1.029-.15,3.265,3.265,0,0,1-.7-.317v-.792" transform="translate(-10.46 -6.947)" fill="#1d1d1b"></path><path id="Path_11" data-name="Path 11" d="M101.48,57.94h3.625v.651h-2.868v2.472h2.64v.625h-2.64V65.12h-.757V57.94" transform="translate(-12.189 -6.959)" fill="#1d1d1b"></path><rect id="Rectangle_6229" data-name="Rectangle 6229" width="0.757" height="7.18" transform="translate(95.979 50.981)" fill="#1d1d1b"></rect><path id="Path_12" data-name="Path 12" d="M114.2,57.935h.7l4.646,5.737a.757.757,0,0,1,.141.387V57.9h.757v7.215h-.66l-4.655-5.754a.44.44,0,0,1-.141-.334v6.089h-.757v-7.18" transform="translate(-13.716 -6.954)" fill="#1d1d1b"></path><path id="Path_13" data-name="Path 13" d="M127.488,57.94h.713l3.009,7.18h-.818l-.88-2.235h-3.264l-.88,2.235h-.827l2.992-7.18m-1.029,4.4h2.789l-1.311-3.2a1.452,1.452,0,0,1-.079-.449v.088a1.082,1.082,0,0,1-.088.37Z" transform="translate(-14.958 -6.959)" fill="#1d1d1b"></path><path id="Path_14" data-name="Path 14" d="M135.35,57.935h.669l4.655,5.737a.748.748,0,0,1,.132.387V57.9h.757v7.215h-.651l-4.663-5.754a.475.475,0,0,1-.141-.334v6.089h-.757v-7.18" transform="translate(-16.257 -6.954)" fill="#1d1d1b"></path><path id="Path_15" data-name="Path 15" d="M152.31,59.125a4.294,4.294,0,0,0-2.147-.607,2.921,2.921,0,0,0-2.992,3.071,2.807,2.807,0,0,0,2.939,2.948,4.4,4.4,0,0,0,1.54-.3,3.521,3.521,0,0,0,.7-.317v.7a4.523,4.523,0,0,1-2.3.581,3.449,3.449,0,0,1-3.669-3.581,3.634,3.634,0,0,1,3.687-3.784,4.54,4.54,0,0,1,2.244.563v.722" transform="translate(-17.581 -6.947)" fill="#1d1d1b"></path><rect id="Rectangle_6230" data-name="Rectangle 6230" width="0.757" height="7.18" transform="translate(138.249 50.981)" fill="#1d1d1b"></rect><path id="Path_16" data-name="Path 16" d="M164.209,57.94h.713l3.009,7.18h-.81l-.88-2.235h-3.264l-.88,2.235h-.827l2.992-7.18m-1.029,4.4h2.789l-1.311-3.2a1.451,1.451,0,0,1-.079-.449v.088a1.32,1.32,0,0,1-.079.37Z" transform="translate(-19.37 -6.959)" fill="#1d1d1b"></path><path id="Path_17" data-name="Path 17" d="M172.08,57.94h.757V64.5h3.344v.625h-4.1V57.94" transform="translate(-20.668 -6.959)" fill="#1d1d1b"></path><path id="Path_18" data-name="Path 18" d="M0,.62H7.655a43.658,43.658,0,0,1,8.887.581,9.82,9.82,0,0,1,5.376,3.326,9.564,9.564,0,0,1,2.094,6.335A9.679,9.679,0,0,1,22,17.2a10,10,0,0,1-5.614,3.361,51.1,51.1,0,0,1-9.776.625H3.836V39.054H0V.62M3.836,4.386v13.04l6.511.07a17.114,17.114,0,0,0,5.772-.7A5.9,5.9,0,0,0,19,14.469a6.414,6.414,0,0,0,1.038-3.581A6.37,6.37,0,0,0,19,7.369,5.807,5.807,0,0,0,16.234,5.09a16.648,16.648,0,0,0-5.6-.678Z" transform="translate(0 -0.074)" fill="#1d1d1b"></path><path id="Path_19" data-name="Path 19" d="M57.658,11.894v28.42H54.05V35.431a15.644,15.644,0,0,1-5.165,4.206,14.421,14.421,0,0,1-16.56-2.965A14.677,14.677,0,0,1,28.05,26.025a14.439,14.439,0,0,1,4.355-10.506,14.078,14.078,0,0,1,10.374-4.4,13.41,13.41,0,0,1,6.335,1.5,14.421,14.421,0,0,1,4.98,4.461V11.894H57.7M43.034,14.683A11.069,11.069,0,0,0,33.285,20.4a11.527,11.527,0,0,0,0,11.439,11.271,11.271,0,0,0,4.135,4.267,10.867,10.867,0,0,0,5.57,1.522,11.439,11.439,0,0,0,5.693-1.513,10.682,10.682,0,0,0,4.135-4.091A11.694,11.694,0,0,0,54.262,26.2a11.307,11.307,0,0,0-3.247-8.245A10.761,10.761,0,0,0,43.034,14.683Z" transform="translate(-3.369 -1.335)" fill="#1d1d1b"></path><path id="Path_20" data-name="Path 20" d="M69.47,11.9h3.74v4.153a13.1,13.1,0,0,1,3.52-3.669,6.89,6.89,0,0,1,3.863-1.223,6.722,6.722,0,0,1,3.247.968l-1.909,3.088a5.068,5.068,0,0,0-1.936-.5,5.279,5.279,0,0,0-3.52,1.5,9.626,9.626,0,0,0-2.587,4.663q-.669,2.429-.678,9.82V40.32H69.47V11.9" transform="translate(-8.344 -1.34)" fill="#1d1d1b"></path><path id="Path_21" data-name="Path 21" d="M112.845,30.887l3.08,1.619a16.8,16.8,0,0,1-3.52,4.813,14.017,14.017,0,0,1-4.47,2.78,15.627,15.627,0,0,1-5.623.95q-6.934,0-10.849-4.514a15.626,15.626,0,0,1-.607-19.982,13.577,13.577,0,0,1,11.271-5.385,14.025,14.025,0,0,1,11.615,5.517,15.433,15.433,0,0,1,3.132,9.723H91.288a11.562,11.562,0,0,0,3.168,8.113,10.092,10.092,0,0,0,7.567,3.159,11.949,11.949,0,0,0,4.223-.757,11.14,11.14,0,0,0,3.52-2,17.2,17.2,0,0,0,3.115-4.039m0-7.655a12.186,12.186,0,0,0-2.129-4.672,10.084,10.084,0,0,0-3.7-2.824,11.359,11.359,0,0,0-4.839-1.073,10.436,10.436,0,0,0-7.224,2.692,12.2,12.2,0,0,0-3.317,5.878Z" transform="translate(-10.514 -1.341)" fill="#1d1d1b"></path><path id="Path_22" data-name="Path 22" d="M129.439,0h3.66V10.559h5.8v3.159h-5.8V38.979h-3.66V13.718H124.45V10.559h4.989V0" transform="translate(-14.948)" fill="#1d1d1b"></path><path id="Path_23" data-name="Path 23" d="M152.247,11.266a15.784,15.784,0,1,0,19.947,10.268l-15.02,4.892-.044-.141.044.141-.194.062V10.5a15.02,15.02,0,0,0-4.734.765" transform="translate(-17.008 -1.261)" fill="#1d1d1b"></path><path id="Path_24" data-name="Path 24" d="M160.55,24.495V8.56a15.68,15.68,0,0,1,15.161,11.007L160.55,24.495" transform="translate(-19.283 -1.028)" fill="#d93a2f"></path></svg>
